<svg width="27" height="34" viewBox="0 0 27 34" fill="none" xmlns="http://www.w3.org/2000/svg">
<path d="M25.0895 17.3154V31.3656C25.0895 32.0274 24.6349 32.5365 24.044 32.5365H2.99858C2.40767 32.5365 1.95312 32.0274 1.95312 31.3656V17.3154" stroke="#333333" stroke-width="1.5"/>
<path fill-rule="evenodd" clip-rule="evenodd" d="M26 16.0929C26 16.7547 25.5455 17.2638 24.9545 17.2638H2.04545C1.45455 17.2638 1 16.7547 1 16.0929V10.8496C1 10.1878 1.45455 9.67871 2.04545 9.67871H24.9545C25.5455 9.67871 26 10.1878 26 10.8496V16.0929Z" stroke="#333333" stroke-width="1.5"/>
<path fill-rule="evenodd" clip-rule="evenodd" d="M20.2248 5.96339C19.2248 7.08334 14.6794 10.3414 13.6339 9.22141C12.6339 8.10147 15.543 2.9599 16.543 1.83996C17.543 0.720014 19.1794 0.720014 20.2248 1.83996C21.2248 2.9599 21.2248 4.84345 20.2248 5.96339Z" stroke="#FBD846" stroke-width="1.5"/>
<path fill-rule="evenodd" clip-rule="evenodd" d="M6.73047 5.96229C7.73047 7.08223 12.3214 10.3912 13.3214 9.27122C14.3214 8.15127 11.4123 3.00971 10.3668 1.88976C9.36683 0.769819 7.73047 0.769819 6.73047 1.88976C5.73047 2.9588 5.73047 4.79144 6.73047 5.96229Z" stroke="#FBD846" stroke-width="1.5"/>
<path d="M10.3613 13.8016C10.3613 13.8016 11.0431 11.4599 13.6795 10.2891V32.4843" stroke="#FBD846" stroke-width="1.5"/>
<path d="M13.5 10.3398C13.5 10.3398 14.5455 14.4124 18.1818 15.0232" stroke="#FBD846" stroke-width="1.5"/>
</svg>
