<svg width="25" height="25" viewBox="0 0 25 25" fill="none" xmlns="http://www.w3.org/2000/svg">
<path d="M14.1686 12.4482C14.1686 11.6737 13.6353 11.027 12.9186 10.8407V6.61491C12.9186 6.38449 12.732 6.19824 12.502 6.19824C12.272 6.19824 12.0853 6.38449 12.0853 6.61491V10.8407C11.5024 10.9924 11.0461 11.4487 10.8945 12.0316H7.91862C7.68862 12.0316 7.50195 12.2178 7.50195 12.4482C7.50195 12.6787 7.68862 12.8649 7.91862 12.8649H10.8945C11.0807 13.582 11.7278 14.1149 12.502 14.1149C13.4211 14.1149 14.1686 13.3674 14.1686 12.4482ZM12.502 13.2816C12.0424 13.2816 11.6686 12.9078 11.6686 12.4482C11.6686 11.9887 12.0424 11.6149 12.502 11.6149C12.9615 11.6149 13.3353 11.9887 13.3353 12.4482C13.3353 12.9078 12.9615 13.2816 12.502 13.2816Z" fill="black"/>
<path d="M12.4948 4.11523C12.7248 4.11523 12.9115 3.92898 12.9115 3.69857V3.2819C12.9115 3.05148 12.7248 2.86523 12.4948 2.86523C12.2648 2.86523 12.0781 3.05148 12.0781 3.2819V3.69857C12.0781 3.92898 12.2648 4.11523 12.4948 4.11523Z" fill="black"/>
<path d="M12.0781 21.1989V21.6156C12.0781 21.846 12.2648 22.0322 12.4948 22.0322C12.7248 22.0322 12.9115 21.846 12.9115 21.6156V21.1989C12.9115 20.9685 12.7248 20.7822 12.4948 20.7822C12.2648 20.7822 12.0781 20.9685 12.0781 21.1989Z" fill="black"/>
<path d="M21.6654 12.8665C21.8954 12.8665 22.082 12.6803 22.082 12.4499C22.082 12.2195 21.8954 12.0332 21.6654 12.0332H21.2487C21.0187 12.0332 20.832 12.2195 20.832 12.4499C20.832 12.6803 21.0187 12.8665 21.2487 12.8665H21.6654Z" fill="black"/>
<path d="M3.33464 12.0332C3.10464 12.0332 2.91797 12.2195 2.91797 12.4499C2.91797 12.6803 3.10464 12.8665 3.33464 12.8665H3.7513C3.9813 12.8665 4.16797 12.6803 4.16797 12.4499C4.16797 12.2195 3.9813 12.0332 3.7513 12.0332H3.33464Z" fill="black"/>
<path d="M18.6843 6.67587C18.791 6.67587 18.8977 6.63504 18.9789 6.55379L19.2735 6.25921C19.4364 6.09629 19.4364 5.83296 19.2735 5.67004C19.1106 5.50712 18.8473 5.50712 18.6843 5.67004L18.3898 5.96462C18.2268 6.12754 18.2268 6.39087 18.3898 6.55379C18.471 6.63546 18.5777 6.67587 18.6843 6.67587Z" fill="#FBD846"/>
<path d="M6.02029 18.3409L5.7257 18.6355C5.56279 18.7984 5.56279 19.0618 5.7257 19.2247C5.80695 19.3059 5.91362 19.3468 6.02029 19.3468C6.12695 19.3468 6.23362 19.3059 6.31487 19.2247L6.60945 18.9301C6.77237 18.7672 6.77237 18.5039 6.60945 18.3409C6.44654 18.178 6.18279 18.178 6.02029 18.3409Z" fill="#FBD846"/>
<path d="M6.60945 5.96462L6.31487 5.67004C6.15195 5.50712 5.88862 5.50712 5.7257 5.67004C5.56279 5.83296 5.56279 6.09629 5.7257 6.25921L6.02029 6.55379C6.10154 6.63504 6.2082 6.67587 6.31487 6.67587C6.42154 6.67587 6.5282 6.63504 6.60945 6.55379C6.77237 6.39129 6.77237 6.12754 6.60945 5.96462Z" fill="#FBD846"/>
<path d="M12.5 0C5.6075 0 0 5.6075 0 12.5C0 19.3925 5.6075 25 12.5 25C13.99 25 15.4496 24.7396 16.8392 24.2254C17.055 24.1458 17.165 23.9058 17.0854 23.6904C17.0054 23.4737 16.7663 23.3637 16.55 23.4442C15.2533 23.9233 13.8908 24.1667 12.5 24.1667C6.06708 24.1667 0.833333 18.9329 0.833333 12.5C0.833333 6.06708 6.06708 0.833333 12.5 0.833333C18.9329 0.833333 24.1667 6.06708 24.1667 12.5C24.1667 13.8917 23.9233 15.2538 23.4437 16.5496C23.3642 16.7658 23.4742 17.0054 23.69 17.085C23.9058 17.1663 24.1454 17.055 24.2254 16.8392C24.7396 15.4504 25 13.9908 25 12.5C25 5.6075 19.3925 0 12.5 0Z" fill="black"/>
<path d="M20.8359 17.1264V16.6676C20.8359 16.4372 20.6493 16.251 20.4193 16.251C20.1893 16.251 20.0026 16.4372 20.0026 16.6676V17.1281C19.548 17.2206 19.1339 17.4618 18.8284 17.8231C18.5739 18.1239 18.4559 18.5089 18.4976 18.9076C18.5401 19.3156 18.7501 19.6939 19.0739 19.9456L20.0026 20.6676V22.9335C19.5189 22.761 19.1693 22.3026 19.1693 21.7601C19.1693 21.5297 18.9826 21.3435 18.7526 21.3435C18.5226 21.3435 18.3359 21.5297 18.3359 21.7601C18.3359 22.766 19.053 23.6076 20.0026 23.8014V24.1676C20.0026 24.3981 20.1893 24.5843 20.4193 24.5843C20.6493 24.5843 20.8359 24.3981 20.8359 24.1676V23.8001C21.2905 23.7076 21.7047 23.4664 22.0105 23.1051C22.2651 22.8035 22.3826 22.4185 22.3409 22.0197C22.298 21.6122 22.0884 21.2343 21.7647 20.9831L20.8359 20.2601V17.9943C21.3197 18.1668 21.6693 18.6251 21.6693 19.1676C21.6693 19.3981 21.8559 19.5843 22.0859 19.5843C22.3159 19.5843 22.5026 19.3981 22.5026 19.1676C22.5026 18.1618 21.7855 17.3201 20.8359 17.1264ZM21.253 21.6406C21.3984 21.7535 21.493 21.9239 21.5122 22.1064C21.5301 22.2772 21.4809 22.441 21.3743 22.5668C21.2293 22.7381 21.0418 22.8581 20.8359 22.9314V21.3156L21.253 21.6406ZM19.5855 19.2876C19.4397 19.1743 19.3455 19.0039 19.3264 18.821C19.3089 18.6506 19.3576 18.4872 19.4643 18.361C19.6093 18.1897 19.7968 18.0697 20.0026 17.9964V19.6118L19.5855 19.2876Z" fill="#FBD846"/>
</svg>
