<svg width="25" height="25" viewBox="0 0 25 25" fill="none" xmlns="http://www.w3.org/2000/svg">
<path d="M0 25H25L0 0V25ZM0.776229 21.507H3.10492V20.7307H0.776229V18.4021H2.32869V17.6258H0.776229V15.2971H3.10492V14.5209H0.776229V12.1922H2.32869V11.416H0.776229V9.08731H3.10492V8.31108H0.776229V1.87382L23.1262 24.2238H0.776229V21.507Z" fill="#333333"/>
<path d="M5.04549 10.8672V21.507H15.6853L5.04549 10.8672ZM5.82172 12.741L13.8114 20.7307H5.82172V12.741Z" fill="#333333"/>
<path d="M24.9837 18.1595L24.0243 14.3226L9.7017 0L6.82422 2.87748L21.1468 17.2001L24.9837 18.1595ZM23.9164 17.0922L21.5435 16.4991L10.2505 5.20617L12.0304 3.42627L23.3233 14.7192L23.9164 17.0922ZM9.7017 1.09759L11.4816 2.87748L9.7017 4.65737L7.92181 2.87748L9.7017 1.09759Z" fill="#FBD846"/>
</svg>
