<svg width="22" height="22" viewBox="0 0 22 22" fill="none" xmlns="http://www.w3.org/2000/svg">
<path d="M8.90781 0.467773C13.5699 0.467773 17.3469 4.24473 17.3469 8.90684C17.3469 10.9221 16.6422 12.7697 15.4648 14.2221L21.2656 20.0229C21.6094 20.3666 21.6094 20.9209 21.2656 21.2646C20.9219 21.6084 20.3676 21.6084 20.0238 21.2646L14.223 15.4639C12.7707 16.6412 10.923 17.3459 8.90781 17.3459C4.2457 17.3459 0.468746 13.5689 0.468746 8.90684C0.468746 4.24473 4.25 0.467773 8.90781 0.467773ZM8.90781 15.5928C12.5988 15.5928 15.5937 12.5979 15.5937 8.90684C15.5937 5.21582 12.5988 2.2209 8.90781 2.2209C5.21679 2.2209 2.22187 5.21582 2.22187 8.90684C2.22187 12.5979 5.21679 15.5928 8.90781 15.5928Z" fill="black"/>
</svg>
