<svg width="26" height="26" viewBox="0 0 26 26" fill="none" xmlns="http://www.w3.org/2000/svg">
<path d="M24.8383 24.069C22.2574 24.069 19.6697 24.069 17.0888 24.069C12.8011 24.069 8.51343 24.069 4.22575 24.069C2.98693 24.069 1.75499 24.069 0.516174 24.069C0.688232 24.2043 0.860291 24.3396 1.03235 24.475C1.03235 22.7427 1.03235 21.0104 1.03235 19.278C1.03235 15.8134 1.03235 12.3488 1.03235 8.88416C1.03235 6.2911 1.03235 3.69804 1.03235 1.1104C1.03235 0.888448 1.03235 0.671909 1.03235 0.449956C0.860291 0.585293 0.688232 0.72063 0.516174 0.855967C3.09705 0.855967 5.6848 0.855967 8.26567 0.855967C12.5534 0.855967 16.841 0.855967 21.1287 0.855967C22.3676 0.855967 23.5995 0.855967 24.8383 0.855967C24.6663 0.72063 24.4942 0.585293 24.3221 0.449956C24.3221 2.18227 24.3221 3.91458 24.3221 5.6469C24.3221 9.11153 24.3221 12.5762 24.3221 16.0408C24.3221 18.6338 24.3221 21.2269 24.3221 23.8145C24.3221 24.0365 24.3221 24.253 24.3221 24.475C24.3221 25.0001 25.3545 25.0001 25.3545 24.475C25.3545 22.7427 25.3545 21.0104 25.3545 19.278C25.3545 15.8134 25.3545 12.3488 25.3545 8.88416C25.3545 6.2911 25.3545 3.69804 25.3545 1.1104C25.3545 0.888448 25.3545 0.671909 25.3545 0.449956C25.3545 0.228004 25.1205 0.0439453 24.8383 0.0439453C22.2574 0.0439453 19.6697 0.0439453 17.0888 0.0439453C12.8011 0.0439453 8.51343 0.0439453 4.22575 0.0439453C2.98693 0.0439453 1.75499 0.0439453 0.516174 0.0439453C0.233999 0.0439453 0 0.228004 0 0.449956C0 2.18227 0 3.91458 0 5.6469C0 9.11153 0 12.5762 0 16.0408C0 18.6338 0 21.2269 0 23.8145C0 24.0365 0 24.253 0 24.475C0 24.6969 0.233999 24.881 0.516174 24.881C3.09705 24.881 5.6848 24.881 8.26567 24.881C12.5534 24.881 16.841 24.881 21.1287 24.881C22.3676 24.881 23.5995 24.881 24.8383 24.881C25.5059 24.881 25.5059 24.069 24.8383 24.069Z" fill="#333333"/>
<path d="M12.2148 0.44122C12.2148 2.18439 12.2148 3.92755 12.2148 5.67072C12.2148 9.15705 12.2148 12.6434 12.2148 16.1297C12.2148 18.739 12.2148 21.3483 12.2148 23.9522C12.2148 24.1755 12.2148 24.3934 12.2148 24.6168C12.2148 25.1452 13.2516 25.1452 13.2516 24.6168C13.2516 22.8736 13.2516 21.1304 13.2516 19.3873C13.2516 15.9009 13.2516 12.4146 13.2516 8.92826C13.2516 6.31896 13.2516 3.70966 13.2516 1.1058C13.2516 0.882459 13.2516 0.664563 13.2516 0.44122C13.2516 -0.0871774 12.2148 -0.0871774 12.2148 0.44122Z" fill="#FBD846"/>
<path d="M0.518445 1.04358C3.1103 1.04358 5.70907 1.04358 8.30093 1.04358C12.6069 1.04358 16.9128 1.04358 21.2188 1.04358C22.4628 1.04358 23.7 1.04358 24.9441 1.04358C25.6145 1.04358 25.6145 0.00683594 24.9441 0.00683594C22.3523 0.00683594 19.7535 0.00683594 17.1616 0.00683594C12.8557 0.00683594 8.54975 0.00683594 4.24381 0.00683594C2.99972 0.00683594 1.76254 0.00683594 0.518445 0.00683594C-0.151982 0.00683594 -0.151982 1.04358 0.518445 1.04358Z" fill="#333333"/>
<path d="M24.944 23.9902C22.3522 23.9902 19.7534 23.9902 17.1616 23.9902C12.8556 23.9902 8.54968 23.9902 4.24374 23.9902C2.99964 23.9902 1.76246 23.9902 0.518372 23.9902C0.691162 24.163 0.863953 24.3358 1.03674 24.5086C1.03674 21.8753 1.03674 19.2489 1.03674 16.6155C1.03674 12.3442 1.03674 8.07277 1.03674 3.80139C1.03674 2.70936 1.03674 1.61732 1.03674 0.518372C0.863953 0.691162 0.691162 0.863953 0.518372 1.03674C3.11023 1.03674 5.709 1.03674 8.30086 1.03674C12.6068 1.03674 16.9127 1.03674 21.2187 1.03674C22.4628 1.03674 23.7 1.03674 24.944 1.03674C24.7713 0.863953 24.5985 0.691162 24.4257 0.518372C24.4257 3.1517 24.4257 5.77812 24.4257 8.41144C24.4257 12.6828 24.4257 16.9542 24.4257 21.2256C24.4257 22.3176 24.4257 23.4097 24.4257 24.5086C24.4257 25.179 25.4624 25.179 25.4624 24.5086C25.4624 21.8753 25.4624 19.2489 25.4624 16.6155C25.4624 12.3442 25.4624 8.07277 25.4624 3.80139C25.4624 2.70936 25.4624 1.61732 25.4624 0.518372C25.4624 0.234995 25.2274 0 24.944 0C22.3522 0 19.7534 0 17.1616 0C12.8556 0 8.54968 0 4.24374 0C2.99964 0 1.76246 0 0.518372 0C0.234995 0 0 0.234995 0 0.518372C0 3.1517 0 5.77812 0 8.41144C0 12.6828 0 16.9542 0 21.2256C0 22.3176 0 23.4097 0 24.5086C0 24.792 0.234995 25.027 0.518372 25.027C3.11023 25.027 5.709 25.027 8.30086 25.027C12.6068 25.027 16.9127 25.027 21.2187 25.027C22.4628 25.027 23.7 25.027 24.944 25.027C25.6145 25.027 25.6145 23.9902 24.944 23.9902Z" fill="#333333"/>
<path d="M14.0391 11.4117C14.0391 12.1512 14.0391 12.8839 14.0391 13.6234C14.0391 14.2938 15.0758 14.2938 15.0758 13.6234C15.0758 12.8839 15.0758 12.1512 15.0758 11.4117C15.0758 10.7482 14.0391 10.7482 14.0391 11.4117Z" fill="#FBD846"/>
<path d="M10.3867 11.4107C10.3867 12.1503 10.3867 12.8829 10.3867 13.6224C10.3867 14.2929 11.4235 14.2929 11.4235 13.6224C11.4235 12.8829 11.4235 12.1503 11.4235 11.4107C11.4235 10.7472 10.3867 10.7472 10.3867 11.4107Z" fill="#FBD846"/>
</svg>
